<?xml version="1.0" encoding="utf-8"?>
<!-- Generator: Adobe Illustrator 23.0.1, SVG Export Plug-In . SVG Version: 6.00 Build 0)  -->
<svg version="1.1" id="logo" xmlns="http://www.w3.org/2000/svg" xmlns:xlink="http://www.w3.org/1999/xlink" x="0px" y="0px"
	 viewBox="0 0 600 600" style="enable-background:new 0 0 600 600;" xml:space="preserve">
<style type="text/css">
	.st0{enable-background:new    ;}
	.st1{fill:#20044F;}
	.st2{fill:none;stroke:#FF0062;}
	.st3{fill:#20044F;stroke:#FF0062;stroke-width:2;stroke-miterlimit:10;}
	.st4{fill:#FF0062;}
	.st5{fill:none;stroke:#FF0062;stroke-width:3;stroke-miterlimit:10;}
	.st6{fill:#190C6F;stroke:#FF0062;stroke-width:3;stroke-miterlimit:10;}
	.st7{fill:none;stroke:#FF0062;stroke-width:2;stroke-miterlimit:10;}
	.st8{fill:none;stroke:#D63EE5;stroke-width:2;stroke-miterlimit:10;}
	.st9{fill:#190C6F;stroke:#FF0062;stroke-width:2;stroke-miterlimit:10;}

	#fill {
	  animation: drift1 .75s;
	}
	#fill:hover {
	  animation: flicker2 .5s;
	}
	#outline {
	  animation: flicker1 .75s .75s;
	}
	#lower #lines_1_ {
	  animation: flicker2 .75s;
	}
	#dots {
	  animation: flicker1 .75s .75s;
	}
	#glitch-group-1:hover,
	#glitch-group-2:hover,
	#glitch-group-3:hover {
	  display: none;
	}
	#glitch-group-1 {
	  animation: drift1 2s .25s;
	}
	#glitch-group-2 {
	  animation: drift1 2s .25s reverse;
	}
	#glitch-group-3 {
	  animation: drift2 2s .25s;
	}
	@keyframes flicker1 {
	  0% { opacity: 100; } 20% { opacity: 100; }
	  21%{ opacity: 0; } 35% { opacity:  0; }
	  36% { opacity: 100; } 50% { opacity: 100; }
	  51% { opacity: 0; } 70% { opacity:  0; }
	  71% { opacity: 100; } 80% { opacity: 100; }
	  81% { opacity: 0; } 90% { opacity: 0; }
	  91% { opacity: 100; }
	}

	@keyframes flicker2 {
	  0% { opacity: 100; } 10% { opacity: 100; }
	  11%{ opacity: 0; } 35% { opacity:  0; }
	  36% { opacity: 100; } 70% { opacity: 100; }
	  71% { opacity: 0; } 77% { opacity:  0; }
	  78% { opacity: 100; } 95% { opacity: 100; }
	  86% { opacity: 0; } 95% { opacity: 0; }
	  96% { opacity: 100; }
	}

	@keyframes drift1 {
	  0% { transform: translate( 0px, 0px); -webkit-transform: translate( 0px, 0px); } /*0,0*/
	  25% { transform: translate( .3%, .3%); -webkit-transform: translate( .3%, .3%); } /*5,5*/
	  60% { transform: translate( -.3%, .1%); -webkit-transform: translate( -.3%, .1%); } /*2,6*/
	  80% { transform: translate( .1%, -.4%); -webkit-transform: translate( .1%, -.4%); } /*3,2*/
	  100% { transform: translate( 0%, 0%); -webkit-transform: translate( 0%, 0%); } /*0,0*/
	}
	@keyframes drift2 {
	  0% { transform: translate( 0px, 0px); -webkit-transform: translate( 0px, 0px); } /*0,0*/
	  25% { transform: translate( -.2%, -.4%); -webkit-transform: translate( -.2%, -.4%); } /*5,5*/
	  60% { transform: translate( .1%, .1%); -webkit-transform: translate( .1%, .1%); } /*2,6*/
	  80% { transform: translate( .3%, .3%); -webkit-transform: translate( .3%, .3%); } /*3,2*/
	  100% { transform: translate( 0%, 0%); -webkit-transform: translate( 0%, 0%); } /*0,0*/
	}

</style>
<g id="text">
	<g id="fill" class="st0">
		<path class="st1" d="M50.6,480v14.3H27.7c-1.9,0-2.8,1-2.8,3v1.6c0,1.9,0.9,2.8,2.6,2.8h11.9c4.8,0,8.2,1.1,10.3,3.3
			c2.1,2.2,3.1,5.4,3.1,9.5v5.6c0,9.7-4.9,14.5-14.7,14.5H12v-14.4h24c1.9,0,2.8-1,2.8-3v-1.6c0-0.9-0.2-1.6-0.5-2.1
			c-0.4-0.5-1-0.7-2-0.7H23.6c-2.2,0-4.1-0.3-5.7-0.9c-1.6-0.6-2.9-1.4-3.9-2.5s-1.8-2.3-2.2-3.7c-0.5-1.4-0.7-3-0.7-4.6v-6.6
			c0-9.7,4.9-14.5,14.7-14.5L50.6,480L50.6,480z"/>
		<path class="st1" d="M89.1,480c9.8,0,14.7,4.8,14.7,14.5v3.2c0,4.8-1.2,8.6-3.7,11.5c-2.4,2.9-6.1,4.3-11.1,4.3H79v-12.3h8.3
			c1,0,1.7-0.3,2.1-0.8c0.3-0.5,0.5-1.2,0.5-2v-1.6c0-2-0.9-3-2.8-3h-9.3c-0.8,0-1.2,0.4-1.2,1.3v39.6H62v-49.8
			c0-3.2,1.6-4.8,4.8-4.8h22.3V480z"/>
		<path class="st1" d="M132.3,480c1.4,0,2.2,0.6,2.7,1.7l17.9,52.9h-32.3l3.7-14.4h8.6l-6-20.4h-0.3l-9.4,34.8h-15.7l16.7-52.9
			c0.4-1.1,1.2-1.7,2.5-1.7L132.3,480L132.3,480z"/>
		<path class="st1" d="M186.5,480c9.8,0,14.7,4.8,14.7,14.5v3.2c0,2.6-0.3,4.5-1,5.7s-1.7,2.2-3,3c1.5,0.6,2.8,1.6,3.8,3.2
			c1,1.5,1.5,3.5,1.5,6v19h-14.7v-18.3c0-0.8-0.2-1.4-0.5-2c-0.3-0.5-1-0.8-2-0.8h-8.9v-12.3h8.3c1,0,1.7-0.3,2.1-0.8
			c0.3-0.5,0.5-1.2,0.5-2v-1.6c0-2-0.9-3-2.8-3h-9.3c-0.8,0-1.2,0.4-1.2,1.3v39.6h-14.7v-49.8c0-3.2,1.6-4.8,4.8-4.8h22.4V480z"/>
		<path class="st1" d="M248.3,480v14.3h-41.8V480H248.3z M234.8,496.7v37.9H220v-37.9L234.8,496.7L234.8,496.7z"/>
		<path class="st1" d="M275.4,480c1.4,0,2.2,0.6,2.7,1.7l17.9,52.9h-32.3l3.7-14.4h8.6l-6-20.4h-0.3l-9.4,34.8h-15.7l16.7-52.9
			c0.4-1.1,1.2-1.7,2.5-1.7L275.4,480L275.4,480z"/>
		<path class="st1" d="M317.2,480v54.6h-14.7V480H317.2z M347.4,480v54.6h-14.7v-21.1h-13.1v-13h13.1V480H347.4z"/>
		<path class="st1" d="M384.7,480c1.4,0,2.2,0.6,2.7,1.7l17.9,52.9H373l3.7-14.4h8.6l-6-20.4H379l-9.4,34.8h-15.7l16.7-52.9
			c0.4-1.1,1.2-1.7,2.5-1.7L384.7,480L384.7,480z"/>
		<path class="st1" d="M443.9,480v14.3h-12.2c-3.4,0-5.8,0.7-7.3,2.2s-2.2,4.1-2.2,7.9v5.9c0,3.8,0.7,6.4,2.2,7.9s3.9,2.2,7.3,2.2
			h12.2v14.4h-12.4c-4.3,0-7.9-0.5-11-1.6c-3-1.1-5.5-2.6-7.5-4.6c-1.9-2-3.3-4.5-4.3-7.5c-0.9-2.9-1.4-6.3-1.4-10v-7.2
			c0-3.7,0.5-7.1,1.4-10s2.3-5.4,4.3-7.5c1.9-2,4.4-3.6,7.5-4.6c3-1.1,6.7-1.6,11-1.6h12.4V480z"/>
		<path class="st1" d="M468,480v54.6h-14.7V480H468z M495.8,480l-9.7,26.1l10.8,28.6h-15.3l-7.4-19c-0.6-1.5-1.5-2.2-2.9-2.2h-1
			v-12.3h1.2c1.3,0,2.2-0.7,2.7-2.2l6.6-19H495.8z"/>
		<path class="st1" d="M543.9,480l9,34.2h0.3l9.4-34.2h15.7l-17,52.9c-0.4,1.1-1.2,1.7-2.5,1.7h-11.7c-1.4,0-2.2-0.6-2.7-1.7
			L527.8,480H543.9z"/>
	</g>
	<g id="outline" class="st0">
		<path class="st2" d="M50.6,480v14.3H27.7c-1.9,0-2.8,1-2.8,3v1.6c0,1.9,0.9,2.8,2.6,2.8h11.9c4.8,0,8.2,1.1,10.3,3.3
			c2.1,2.2,3.1,5.4,3.1,9.5v5.6c0,9.7-4.9,14.5-14.7,14.5H12v-14.4h24c1.9,0,2.8-1,2.8-3v-1.6c0-0.9-0.2-1.6-0.5-2.1
			c-0.4-0.5-1-0.7-2-0.7H23.6c-2.2,0-4.1-0.3-5.7-0.9c-1.6-0.6-2.9-1.4-3.9-2.5s-1.8-2.3-2.2-3.7c-0.5-1.4-0.7-3-0.7-4.6v-6.6
			c0-9.7,4.9-14.5,14.7-14.5L50.6,480L50.6,480z"/>
		<path class="st2" d="M89.1,480c9.8,0,14.7,4.8,14.7,14.5v3.2c0,4.8-1.2,8.6-3.7,11.5c-2.4,2.9-6.1,4.3-11.1,4.3H79v-12.3h8.3
			c1,0,1.7-0.3,2.1-0.8c0.3-0.5,0.5-1.2,0.5-2v-1.6c0-2-0.9-3-2.8-3h-9.3c-0.8,0-1.2,0.4-1.2,1.3v39.6H62v-49.8
			c0-3.2,1.6-4.8,4.8-4.8h22.3V480z"/>
		<path class="st2" d="M132.3,480c1.4,0,2.2,0.6,2.7,1.7l17.9,52.9h-32.3l3.7-14.4h8.6l-6-20.4h-0.3l-9.4,34.8h-15.7l16.7-52.9
			c0.4-1.1,1.2-1.7,2.5-1.7L132.3,480L132.3,480z"/>
		<path class="st2" d="M186.5,480c9.8,0,14.7,4.8,14.7,14.5v3.2c0,2.6-0.3,4.5-1,5.7s-1.7,2.2-3,3c1.5,0.6,2.8,1.6,3.8,3.2
			c1,1.5,1.5,3.5,1.5,6v19h-14.7v-18.3c0-0.8-0.2-1.4-0.5-2c-0.3-0.5-1-0.8-2-0.8h-8.9v-12.3h8.3c1,0,1.7-0.3,2.1-0.8
			c0.3-0.5,0.5-1.2,0.5-2v-1.6c0-2-0.9-3-2.8-3h-9.3c-0.8,0-1.2,0.4-1.2,1.3v39.6h-14.7v-49.8c0-3.2,1.6-4.8,4.8-4.8h22.4V480z"/>
		<path class="st2" d="M248.3,480v14.3h-41.8V480H248.3z M234.8,496.7v37.9H220v-37.9L234.8,496.7L234.8,496.7z"/>
		<path class="st2" d="M275.4,480c1.4,0,2.2,0.6,2.7,1.7l17.9,52.9h-32.3l3.7-14.4h8.6l-6-20.4h-0.3l-9.4,34.8h-15.7l16.7-52.9
			c0.4-1.1,1.2-1.7,2.5-1.7L275.4,480L275.4,480z"/>
		<path class="st2" d="M317.2,480v54.6h-14.7V480H317.2z M347.4,480v54.6h-14.7v-21.1h-13.1v-13h13.1V480H347.4z"/>
		<path class="st2" d="M384.7,480c1.4,0,2.2,0.6,2.7,1.7l17.9,52.9H373l3.7-14.4h8.6l-6-20.4H379l-9.4,34.8h-15.7l16.7-52.9
			c0.4-1.1,1.2-1.7,2.5-1.7L384.7,480L384.7,480z"/>
		<path class="st2" d="M443.9,480v14.3h-12.2c-3.4,0-5.8,0.7-7.3,2.2s-2.2,4.1-2.2,7.9v5.9c0,3.8,0.7,6.4,2.2,7.9s3.9,2.2,7.3,2.2
			h12.2v14.4h-12.4c-4.3,0-7.9-0.5-11-1.6c-3-1.1-5.5-2.6-7.5-4.6c-1.9-2-3.3-4.5-4.3-7.5c-0.9-2.9-1.4-6.3-1.4-10v-7.2
			c0-3.7,0.5-7.1,1.4-10s2.3-5.4,4.3-7.5c1.9-2,4.4-3.6,7.5-4.6c3-1.1,6.7-1.6,11-1.6h12.4V480z"/>
		<path class="st2" d="M468,480v54.6h-14.7V480H468z M495.8,480l-9.7,26.1l10.8,28.6h-15.3l-7.4-19c-0.6-1.5-1.5-2.2-2.9-2.2h-1
			v-12.3h1.2c1.3,0,2.2-0.7,2.7-2.2l6.6-19H495.8z"/>
		<path class="st2" d="M543.9,480l9,34.2h0.3l9.4-34.2h15.7l-17,52.9c-0.4,1.1-1.2,1.7-2.5,1.7h-11.7c-1.4,0-2.2-0.6-2.7-1.7
			L527.8,480H543.9z"/>
	</g>
</g>
<g id="infrastructure">
	<path id="bridge-bg" class="st1" d="M160.4,353.2c0,0,36.1,72.8,141.4,72.8s143.4-71.4,143.4-71.4L301.5,258L160.4,353.2z"/>
	<polygon id="b1_2_" class="st3" points="112.3,203.3 174.2,203.3 196.3,203.3 196.3,298.5 145.6,330.5 118.2,289.4 	"/>
	<polyline id="b2_2_" class="st3" points="292.3,234.6 292.3,190.5 279.6,190.5 279.6,159.3 249.9,129.8 220.1,159.3 220.1,190.5
		207.5,190.5 207.5,291.2 	"/>
	<polyline id="b3_2_" class="st3" points="310,234.6 310,107.5 357.7,133.8 357.7,178.2 383.2,192.6 383.2,283.1 	"/>
	<polyline id="b4_3_" class="st3" points="464.3,190.9 420.1,190.9 394.9,199.5 394.9,292.3 456.2,331.8 495.7,267.9 464.3,186.9
		"/>
</g>
<g id="circuit">
	<g id="lower">
		<g id="circles">
			<circle class="st4" cx="371.4" cy="328" r="6.4"/>
			<circle class="st4" cx="371.4" cy="375.3" r="6.4"/>
			<circle class="st4" cx="342.1" cy="351.9" r="6.4"/>
			<circle class="st4" cx="238.8" cy="329.8" r="6.4"/>
			<circle class="st4" cx="266.1" cy="355.2" r="6.4"/>
			<circle class="st4" cx="238.8" cy="384.5" r="6.4"/>
			<circle class="st4" cx="314.5" cy="295.8" r="6.4"/>
			<circle class="st4" cx="288" cy="330.5" r="6.4"/>
			<circle class="st4" cx="315.3" cy="352.1" r="6.4"/>
			<circle class="st4" cx="288.4" cy="365.1" r="6.4"/>
			<circle class="st4" cx="314.8" cy="373" r="6.4"/>
			<circle class="st4" cx="288.4" cy="400.1" r="6.4"/>
			<circle class="st4" cx="398.6" cy="353.1" r="6.4"/>
			<circle class="st4" cx="198.4" cy="348.8" r="6.4"/>
		</g>
		<g id="lines_1_">
			<polyline class="st5" points="301.5,306.5 314.5,306.5 314.5,299.2 			"/>
			<polyline class="st5" points="301.5,320.9 288,320.9 288,329.8 			"/>
			<polyline class="st5" points="301.5,341.9 315.3,341.9 315.3,351.5 			"/>
			<line class="st5" x1="301.5" y1="364.6" x2="288" y2="364.6"/>
			<polyline class="st5" points="301.5,383.5 314.6,383.5 314.5,373 			"/>
			<polyline class="st5" points="301.5,389.9 288,389.9 288,400.1 			"/>
			<polyline class="st5" points="408.9,329.8 408.9,352.8 395.3,352.8 			"/>
			<polyline class="st5" points="187.2,383.5 187.2,349.8 203.3,349.8 			"/>
			<polyline class="st6" points="342.4,285.5 342.4,339.2 342.4,421 			"/>
			<polyline class="st5" points="342.4,352 371.4,352 371.4,328.7 			"/>
			<line class="st5" x1="371.4" y1="377.6" x2="371.4" y2="339.2"/>
			<polyline class="st5" points="266.1,280 266.1,329.1 238.8,329.1 238.8,355.5 266.1,355.5 266.1,385 238.8,385 238.8,410.3
				"/>
			<polyline class="st6" points="301.5,258.2 301.5,284.8 301.5,425.9 			"/>
			<polyline class="st5" points="204.8,348.8 214.5,348.8 214.5,315.9 			"/>
		</g>
	</g>
	<g id="upper">
		<g id="lines">
			<g id="b1">
				<polyline class="st7" points="130.9,211.1 130.9,224.6 147.1,224.6 				"/>
				<polyline class="st7" points="195.4,241.5 172.2,241.5 172.2,225.4 				"/>
				<polyline class="st7" points="148.4,259.7 159.5,259.7 159.5,243.6 				"/>
				<polyline class="st7" points="173.5,279.1 146.8,279.1 146.8,307.2 				"/>
				<line class="st7" x1="126.5" y1="243.6" x2="147.5" y2="243.6"/>
				<line class="st7" x1="194.5" y1="260.1" x2="172.7" y2="260.1"/>
				<line class="st7" x1="159.7" y1="226.1" x2="159.7" y2="205"/>
			</g>
			<g id="b2">
				<polyline class="st7" points="208.4,264.2 221.8,264.2 221.8,248.1 				"/>
				<polyline class="st8" points="219.3,175.7 232.7,175.7 232.7,159.6 				"/>
				<polyline class="st7" points="219.3,175.7 232.7,175.7 232.7,163.2 				"/>
				<line class="st7" x1="232.7" y1="185.1" x2="232.7" y2="175.7"/>
				<polyline class="st7" points="207.1,237.7 220.5,237.7 233.8,237.7 233.8,249 				"/>
				<line class="st7" x1="220.5" y1="218.6" x2="220.5" y2="237.7"/>
				<line class="st7" x1="242" y1="221.9" x2="242" y2="201.5"/>
				<line class="st7" x1="254.6" y1="202" x2="275.2" y2="202"/>
				<line class="st7" x1="242" y1="267.9" x2="242" y2="241.5"/>
				<line class="st7" x1="208.4" y1="202.7" x2="220.5" y2="202.7"/>
				<polyline class="st7" points="283.1,220.1 256.3,220.1 256.3,239.7 				"/>
				<polyline class="st7" points="279.5,185.5 256.3,185.5 256.3,165.8 				"/>
			</g>
			<g id="b3">
				<polyline class="st9" points="334,121.5 334,161 334,179.7 				"/>
				<line class="st7" x1="347.4" y1="161" x2="334" y2="161"/>
				<line class="st7" x1="334" y1="144.4" x2="320.7" y2="144.4"/>
				<line class="st7" x1="344.9" y1="127.4" x2="344.9" y2="144.2"/>
				<line class="st7" x1="366.9" y1="183.1" x2="366.9" y2="196.3"/>
				<polyline class="st7" points="310.1,225.9 333.2,225.9 333.2,238.5 				"/>
				<line class="st7" x1="344.9" y1="225.4" x2="344.9" y2="197.9"/>
				<line class="st7" x1="329.5" y1="210.2" x2="357.3" y2="210.2"/>
				<line class="st7" x1="308.9" y1="160.6" x2="323.4" y2="160.6"/>
				<polyline class="st7" points="383.2,245.9 356.5,245.9 356.5,233.4 				"/>
				<line class="st7" x1="356.5" y1="255.4" x2="356.5" y2="245.9"/>
				<line class="st7" x1="369.5" y1="266.1" x2="369.5" y2="245.8"/>
				<polyline class="st7" points="309.2,179.1 322.6,179.1 322.6,210.2 				"/>
				<polyline class="st7" points="384.1,225.9 367.1,225.9 367.1,209 				"/>
			</g>
			<g id="b4">
				<line class="st7" x1="475.1" y1="232.8" x2="458.5" y2="232.8"/>
				<line class="st7" x1="407.7" y1="251.8" x2="407.7" y2="231.4"/>
				<polyline class="st7" points="426.6,191.1 426.6,204.4 426.6,217.6 411.5,217.6 				"/>
				<line class="st7" x1="445.9" y1="204.4" x2="426.6" y2="204.4"/>
				<polyline class="st7" points="443.4,302.1 443.4,286.4 423.5,286.4 				"/>
				<line class="st7" x1="457.5" y1="287.6" x2="457.5" y2="267.3"/>
				<polyline class="st7" points="426.6,232.5 426.6,250 446.5,250 				"/>
				<line class="st7" x1="395.9" y1="265.3" x2="444" y2="265.3"/>
			</g>
		</g>
		<g id="dots">
			<g id="b1_1_">
				<ellipse class="st4" cx="147.1" cy="224.6" rx="4.8" ry="4.8"/>
				<ellipse class="st4" cx="172.2" cy="225.4" rx="4.8" ry="4.8"/>
				<ellipse class="st4" cx="159.5" cy="243.6" rx="4.8" ry="4.8"/>
				<ellipse class="st4" cx="147.1" cy="259.7" rx="4.8" ry="4.8"/>
				<ellipse class="st4" cx="146.8" cy="303.6" rx="4.8" ry="4.8"/>
				<ellipse class="st4" cx="175.6" cy="278.7" rx="4.8" ry="4.8"/>
				<ellipse class="st4" cx="146.8" cy="278.7" rx="4.8" ry="4.8"/>
				<ellipse class="st4" cx="147" cy="243.6" rx="4.8" ry="4.8"/>
				<ellipse class="st4" cx="172.7" cy="260.1" rx="4.8" ry="4.8"/>
				<ellipse class="st4" cx="159.7" cy="225.1" rx="4.8" ry="4.8"/>
			</g>
			<g id="b2_1_">
				<ellipse class="st4" cx="221.8" cy="251.7" rx="4.8" ry="4.8"/>
				<ellipse class="st4" cx="232.7" cy="163.2" rx="4.8" ry="4.8"/>
				<ellipse class="st4" cx="232.7" cy="186.8" rx="4.8" ry="4.8"/>
				<ellipse class="st4" cx="233.8" cy="251.4" rx="4.8" ry="4.8"/>
				<ellipse class="st4" cx="220.4" cy="219.4" rx="4.8" ry="4.8"/>
				<ellipse class="st4" cx="242" cy="202.7" rx="4.8" ry="4.8"/>
				<ellipse class="st4" cx="242" cy="220.1" rx="4.8" ry="4.8"/>
				<ellipse class="st4" cx="274" cy="202" rx="4.8" ry="4.8"/>

					<ellipse transform="matrix(0.1602 -0.9871 0.9871 0.1602 15.9376 422.7324)" class="st4" cx="256.4" cy="202" rx="4.8" ry="4.8"/>
				<ellipse class="st4" cx="242" cy="237.7" rx="4.8" ry="4.8"/>
				<ellipse class="st4" cx="220" cy="202.7" rx="4.8" ry="4.8"/>

					<ellipse transform="matrix(0.1602 -0.9871 0.9871 0.1602 -18.9906 452.2792)" class="st4" cx="256.3" cy="237.3" rx="4.8" ry="4.8"/>
				<ellipse class="st4" cx="281.5" cy="219.6" rx="4.8" ry="4.8"/>

					<ellipse transform="matrix(0.1602 -0.9871 0.9871 0.1602 -1.5192 437.4145)" class="st4" cx="256.3" cy="219.6" rx="4.8" ry="4.8"/>

					<ellipse transform="matrix(0.1602 -0.9871 0.9871 0.1602 54.2366 390.1474)" class="st4" cx="256.4" cy="163.2" rx="4.8" ry="4.8"/>

					<ellipse transform="matrix(0.1602 -0.9871 0.9871 0.1602 31.7457 409.1126)" class="st4" cx="256.3" cy="185.9" rx="4.8" ry="4.8"/>
			</g>
			<g id="b3_1_">
				<ellipse class="st4" cx="334" cy="179.1" rx="4.8" ry="4.8"/>
				<ellipse class="st4" cx="344.9" cy="161" rx="4.8" ry="4.8"/>
				<ellipse class="st4" cx="323.1" cy="144.4" rx="4.8" ry="4.8"/>
				<ellipse class="st4" cx="344.9" cy="144.8" rx="4.8" ry="4.8"/>
				<ellipse class="st4" cx="366.9" cy="194.6" rx="4.8" ry="4.8"/>
				<ellipse class="st4" cx="333.2" cy="239.4" rx="4.8" ry="4.8"/>
				<ellipse class="st4" cx="333.2" cy="225.6" rx="4.8" ry="4.8"/>
				<ellipse class="st4" cx="344.9" cy="194.8" rx="4.8" ry="4.8"/>
				<ellipse class="st4" cx="344.9" cy="225.6" rx="4.8" ry="4.8"/>
				<ellipse class="st4" cx="355.9" cy="210.2" rx="4.8" ry="4.8"/>
				<ellipse class="st4" cx="334" cy="210.2" rx="4.8" ry="4.8"/>
				<ellipse class="st4" cx="323.1" cy="160.6" rx="4.8" ry="4.8"/>
				<ellipse class="st4" cx="356.5" cy="233.4" rx="4.8" ry="4.8"/>
				<ellipse class="st4" cx="356.5" cy="254.9" rx="4.8" ry="4.8"/>
				<ellipse class="st4" cx="369.5" cy="264" rx="4.8" ry="4.8"/>
				<ellipse class="st4" cx="322.6" cy="194.8" rx="4.8" ry="4.8"/>
				<ellipse class="st4" cx="322.6" cy="209.9" rx="4.8" ry="4.8"/>
				<ellipse class="st4" cx="367.1" cy="210.2" rx="4.8" ry="4.8"/>
			</g>
			<g id="b4_1_">
				<ellipse class="st4" cx="459.1" cy="232.8" rx="4.8" ry="4.8"/>
				<ellipse class="st4" cx="407.7" cy="232.6" rx="4.8" ry="4.8"/>
				<ellipse class="st4" cx="407.7" cy="250" rx="4.8" ry="4.8"/>
				<ellipse class="st4" cx="407.9" cy="217.6" rx="4.8" ry="4.8"/>
				<ellipse class="st4" cx="445" cy="204.3" rx="4.8" ry="4.8"/>
				<ellipse class="st4" cx="425.9" cy="286.4" rx="4.8" ry="4.8"/>
				<ellipse class="st4" cx="443.8" cy="301.7" rx="4.8" ry="4.8"/>
				<ellipse class="st4" cx="443.8" cy="286.4" rx="4.8" ry="4.8"/>
				<ellipse class="st4" cx="457.5" cy="265.3" rx="4.8" ry="4.8"/>
				<ellipse class="st4" cx="457.5" cy="286.4" rx="4.8" ry="4.8"/>
				<ellipse class="st4" cx="444" cy="250" rx="4.8" ry="4.8"/>
				<ellipse class="st4" cx="426.1" cy="232.9" rx="4.8" ry="4.8"/>
				<ellipse class="st4" cx="426.1" cy="250" rx="4.8" ry="4.8"/>
				<ellipse class="st4" cx="443.8" cy="265.3" rx="4.8" ry="4.8"/>
				<ellipse class="st4" cx="408.3" cy="265.3" rx="4.8" ry="4.8"/>
			</g>
		</g>
	</g>
</g>
<g id="glitches">
	<polygon class="st4" points="107.2,248.8 94.1,248.8 94.1,242.1 109,242.1 	"/>
	<polygon class="st4" points="108.2,260.5 95.1,260.5 95.1,253.9 110.1,253.9 	"/>
	<rect id="glitch-group-1" x="411.1" y="122.1" class="st4" width="2.6" height="2.6"/>
	<rect id="glitch-group-2" x="150.2" y="402.8" class="st4" width="3.7" height="3.7"/>
	<rect id="glitch-group-3" x="146.4" y="392.5" class="st4" width="3.7" height="3.7"/>
	<rect id="glitch-group-2" x="154" y="396.4" class="st4" width="3.7" height="3.7"/>
	<rect id="glitch-group-1" x="174.4" y="138.2" class="st4" width="6.4" height="6.4"/>
	<rect id="glitch-group-3" x="325.2" y="87.1" class="st4" width="6.4" height="6.4"/>
	<rect id="glitch-group-2" x="338.9" y="84.2" class="st4" width="4.5" height="4.5"/>
	<rect id="glitch-grou-3" x="168.5" y="68.5" class="st4" width="6.4" height="6.4"/>
	<rect id="glitch-group-3" x="182.3" y="65.6" class="st4" width="4.5" height="4.5"/>
	<rect id="glitch-group-2" x="449.9" y="411.1" class="st4" width="6.4" height="6.4"/>
	<rect id="glitch-group-3" x="463.6" y="408.3" class="st4" width="4.5" height="4.5"/>
	<rect id="glitch-group-1" x="451.4" y="90.7" class="st4" width="3.7" height="3.7"/>
	<rect id="glitch-group-3" x="447.6" y="80.5" class="st4" width="3.7" height="3.7"/>
	<rect id="glitch-group-2" x="455.3" y="84.3" class="st4" width="3.7" height="3.7"/>
	<rect id="glitch-group-1" x="87.8" y="249.5" class="st4" width="3.7" height="3.7"/>
	<rect id="glitch-group-3" x="488" y="144.4" class="st4" width="2.2" height="2.2"/>
	<rect id="glitch-group-1" x="443" y="157.9" class="st4" width="2.6" height="2.6"/>
</g>
<polygon id="bridge_7_" class="st3" points="157.6,353.9 146.3,331.8 301.2,228.4 456.2,331.8 444.9,354.6 301.2,258 "/>
<path id="structure_13_" class="st3" d="M99.9,247.7h10v7.2H100c1,49,19.6,93.7,49.7,128.1h8.4c7.1,8.1,14.9,15.7,23.2,22.6h-8.4
	c34.9,29,79.6,46.4,128.4,46.4c14.9,0,29.5-1.6,43.5-4.8v-5h18.4c47-15.2,86.5-47.3,111.3-89.1h-9.2v-5h12
	c16.1-28.9,25.2-62.1,25.2-97.5c0-22.3-3.6-43.8-10.4-63.8h6c-3.5-10.4-7.8-20.4-12.9-30h-15.8v-9.2h10.7
	c-6.2-10.3-13.3-20.1-21.1-29.1h-6c-35.4-40.5-86.6-66.8-144-69v4.8c-2.6-0.1-5.2-0.2-7.8-0.2c-22,0-43.2,3.6-63,10.1v-4.8
	c-9.6,3.2-18.8,7-27.7,11.5H202c-13.7,6.9-26.5,15.4-38.2,25.2h8.4C128.8,132.6,100.8,186.9,99.9,247.7z M153.3,135.6h16.4
	c17.3-19.8,39-35.6,63.6-46v5.2C254.2,86,277.1,81,301.2,81c2.8,0,5.6,0.1,8.4,0.2V76c6.9,0.3,13.7,1.1,20.4,2.2v-3.4h19v7.7
	c19.4,5.5,37.5,14.3,53.5,25.8h6.5c26,18.5,46.7,44,59.4,73.6h-6.5C471,203,476,226.3,476,250.7c0,96.4-78.4,174.9-174.9,174.9
	c-18.1,0-35.5-2.8-51.9-7.9h9c-17.8-5.5-34.3-13.8-49.1-24.4H200c-44.6-31.7-73.8-83.8-73.8-142.6c0-40,13.5-76.8,36.1-106.3h-9.2
	L153.3,135.6L153.3,135.6z"/>
</svg>
